<svg width="800" height="800" viewBox="0 0 800 800" fill="none" xmlns="http://www.w3.org/2000/svg">
  <defs>
    <linearGradient id="cover-bg" x1="130" y1="82" x2="704" y2="712" gradientUnits="userSpaceOnUse">
      <stop offset="0" stop-color="#081827"/>
      <stop offset="0.55" stop-color="#0F2D4B"/>
      <stop offset="1" stop-color="#24103E"/>
    </linearGradient>
    <linearGradient id="cover-stroke" x1="166" y1="164" x2="654" y2="676" gradientUnits="userSpaceOnUse">
      <stop offset="0" stop-color="#36E8FF"/>
      <stop offset="0.45" stop-color="#5F86FF"/>
      <stop offset="1" stop-color="#F45AD6"/>
    </linearGradient>
    <linearGradient id="cover-panel" x1="205" y1="195" x2="601" y2="608" gradientUnits="userSpaceOnUse">
      <stop offset="0" stop-color="#FFFFFF" stop-opacity="0.18"/>
      <stop offset="0.65" stop-color="#FFFFFF" stop-opacity="0.07"/>
      <stop offset="1" stop-color="#FFFFFF" stop-opacity="0.03"/>
    </linearGradient>
    <linearGradient id="cover-card" x1="260" y1="294" x2="580" y2="568" gradientUnits="userSpaceOnUse">
      <stop offset="0" stop-color="#102B4C"/>
      <stop offset="1" stop-color="#0A1628"/>
    </linearGradient>
    <linearGradient id="cover-accent" x1="226" y1="202" x2="618" y2="582" gradientUnits="userSpaceOnUse">
      <stop offset="0" stop-color="#39F1FF"/>
      <stop offset="0.5" stop-color="#6F7CFF"/>
      <stop offset="1" stop-color="#FF5CD7"/>
    </linearGradient>
    <filter id="soft-shadow" x="80" y="80" width="640" height="640" filterUnits="userSpaceOnUse" color-interpolation-filters="sRGB">
      <feDropShadow dx="0" dy="30" stdDeviation="38" flood-color="#020617" flood-opacity="0.52"/>
    </filter>
    <filter id="line-glow" x="-20" y="-20" width="840" height="840" filterUnits="userSpaceOnUse" color-interpolation-filters="sRGB">
      <feGaussianBlur stdDeviation="4" result="blur"/>
      <feColorMatrix in="blur" type="matrix" values="0 0 0 0 0.22 0 0 0 0 0.82 0 0 0 0 1 0 0 0 0.8 0"/>
      <feBlend in="SourceGraphic" mode="screen"/>
    </filter>
  </defs>

  <circle cx="400" cy="400" r="340" fill="url(#cover-bg)" opacity="0.94"/>
  <path d="M186 228C252 154 342 116 448 132C548 147 627 211 665 304C710 415 672 545 579 621C498 687 389 704 292 659C197 615 135 525 132 421C130 340 151 267 186 228Z" stroke="url(#cover-stroke)" stroke-width="4" opacity="0.58" filter="url(#line-glow)"/>
  <path d="M173 536C241 656 381 704 508 654" stroke="#42E8FF" stroke-opacity="0.28" stroke-width="6" stroke-linecap="round"/>
  <path d="M252 143C367 78 535 118 621 223" stroke="#FF64D8" stroke-opacity="0.22" stroke-width="8" stroke-linecap="round"/>

  <g filter="url(#soft-shadow)">
    <rect x="188" y="188" width="424" height="424" rx="38" fill="url(#cover-panel)" stroke="url(#cover-stroke)" stroke-width="2"/>
    <rect x="214" y="222" width="372" height="78" rx="18" fill="#071323" stroke="#FFFFFF" stroke-opacity="0.08"/>
    <circle cx="246" cy="261" r="10" fill="#35E8FF"/>
    <circle cx="277" cy="261" r="10" fill="#6585FF"/>
    <circle cx="308" cy="261" r="10" fill="#F65BD6"/>
    <rect x="394" y="248" width="132" height="16" rx="8" fill="#C7F8FF" fill-opacity="0.42"/>
    <rect x="536" y="248" width="26" height="16" rx="8" fill="#4DEAFF" fill-opacity="0.82"/>

    <rect x="232" y="330" width="144" height="184" rx="22" fill="url(#cover-card)" stroke="#FFFFFF" stroke-opacity="0.08"/>
    <rect x="256" y="356" width="82" height="14" rx="7" fill="#FFFFFF" fill-opacity="0.82"/>
    <rect x="256" y="392" width="88" height="10" rx="5" fill="#55E9FF" fill-opacity="0.55"/>
    <rect x="256" y="418" width="58" height="10" rx="5" fill="#748CFF" fill-opacity="0.55"/>
    <rect x="256" y="444" width="96" height="10" rx="5" fill="#FC62D8" fill-opacity="0.5"/>
    <path d="M262 486H350" stroke="#FFFFFF" stroke-opacity="0.16" stroke-width="3" stroke-linecap="round"/>

    <rect x="424" y="330" width="144" height="184" rx="22" fill="url(#cover-card)" stroke="#FFFFFF" stroke-opacity="0.08"/>
    <path d="M456 464C481 431 506 441 533 386" stroke="url(#cover-accent)" stroke-width="7" stroke-linecap="round" filter="url(#line-glow)"/>
    <circle cx="456" cy="464" r="8" fill="#38E8FF"/>
    <circle cx="494" cy="432" r="8" fill="#738CFF"/>
    <circle cx="533" cy="386" r="8" fill="#FF5BD6"/>
    <rect x="454" y="354" width="58" height="12" rx="6" fill="#FFFFFF" fill-opacity="0.78"/>
    <rect x="454" y="488" width="78" height="10" rx="5" fill="#FFFFFF" fill-opacity="0.14"/>

    <rect x="296" y="548" width="208" height="72" rx="24" fill="#071323" stroke="url(#cover-stroke)" stroke-width="2"/>
    <circle cx="338" cy="584" r="12" fill="#35E8FF"/>
    <path d="M362 584H454" stroke="#FFFFFF" stroke-opacity="0.7" stroke-width="8" stroke-linecap="round"/>
    <path d="M476 584H486" stroke="#FF64D8" stroke-width="8" stroke-linecap="round"/>

    <path d="M376 421H424" stroke="url(#cover-accent)" stroke-width="5" stroke-linecap="round"/>
    <circle cx="400" cy="421" r="11" fill="#061221" stroke="#7AF3FF" stroke-width="3"/>
  </g>

  <g opacity="0.68">
    <circle cx="165" cy="318" r="5" fill="#39F1FF"/>
    <circle cx="643" cy="449" r="5" fill="#FF5CD7"/>
    <circle cx="578" cy="176" r="4" fill="#FFFFFF"/>
    <circle cx="241" cy="653" r="4" fill="#7CF4FF"/>
  </g>
</svg>
